Coordinates
version=1
nRows=13
nColumns=36
inDegrees=yes

Units are S.I. units (second, meters, Newtons, ...)
If the header above contains a line with 'inDegrees', this indicates whether rotational values are in degrees (yes) or radians (no).

endheader
time	pelvis_tilt	pelvis_list	pelvis_rotation	pelvis_tx	pelvis_ty	pelvis_tz	hip_flexion_r	hip_adduction_r	hip_rotation_r	knee_angle_r	knee_angle_r_beta	ankle_angle_r	subtalar_angle_r	mtp_angle_r	hip_flexion_l	hip_adduction_l	hip_rotation_l	knee_angle_l	knee_angle_l_beta	ankle_angle_l	subtalar_angle_l	mtp_angle_l	lumbar_extension	lumbar_bending	lumbar_rotation	arm_flex_r	arm_add_r	arm_rot_r	elbow_flex_r	pro_sup_r	arm_flex_l	arm_add_l	arm_rot_l	elbow_flex_l	pro_sup_l
      3.75000000	     -7.14038980	     -0.56263536	      2.56123038	      0.33304952	      1.01524670	     -0.02961436	      6.13229867	     -1.52336565	      3.34603045	      5.18151097	      0.09043443	      4.60877418	    -14.90832373	     -7.49999987	      8.40913094	     -5.89041400	      3.25051726	      8.07868654	      0.14099968	      3.92859563	     -7.44393094	     -7.49999987	     -2.93386661	     -0.16824144	      0.92651423	      2.89521224	     -7.89842546	      4.53821479	     39.97799163	     77.20672713	      2.96915324	     -9.34421700	      5.50694281	     45.87971792	     78.94211405
      3.76666670	     -7.35859427	     -0.58207513	      2.56277060	      0.33353802	      1.01550281	     -0.02968311	      6.41119219	     -1.47277685	      3.50611799	      5.13742888	      0.08966505	      4.52444647	    -14.89564200	     -7.49999987	      8.67204719	     -5.92768939	      3.19558126	      7.93396441	      0.13847380	      3.92428405	     -7.19651109	     -7.49999987	     -2.63071232	     -0.20179883	      1.26847484	      2.74755445	     -7.69835990	      4.25744658	     40.54903558	     77.52522480	      2.96868416	     -9.38960636	      6.07812373	     46.45808275	     83.71031781
      3.78333330	     -7.48468961	     -0.59484718	      2.57495017	      0.33724788	      1.01504258	     -0.03452082	      6.51310888	     -1.52415175	      3.44669567	      5.09422266	      0.08891096	      4.38021761	    -14.82555855	     -7.49999987	      8.70807467	     -5.90572804	      3.07411861	      7.70067304	      0.13440210	      3.86980249	     -6.95210641	     -7.49999987	     -2.22462586	     -0.16318245	      1.43414815	      2.56213641	     -7.70021590	      4.31653291	     40.87108909	     77.52841035	      2.51196672	     -9.32734259	      6.50797316	     47.11287671	     83.84680512
      3.80000000	     -7.57577233	     -0.60787690	      2.59879516	      0.33767162	      1.01539835	     -0.03455316	      6.55049590	     -1.58514470	      3.42092448	      5.01653007	      0.08755497	      4.24480205	    -14.80271773	     -7.49999987	      8.66302950	     -5.88653840	      2.99282469	      7.44984929	      0.13002440	      3.82204318	     -6.87763955	     -7.49999987	     -1.87727163	     -0.10130872	      1.62416721	      2.21152879	     -7.83025480	      4.52858986	     41.46555389	     76.10273747	      2.17886702	     -9.64364244	      7.80717599	     47.80851751	     82.63541567
      3.81666670	     -7.54513737	     -0.58702469	      2.57752886	      0.33766109	      1.01818781	     -0.03487174	      6.42258157	     -1.69461126	      3.25037915	      4.90830539	      0.08566609	      4.21095620	    -14.50789599	     -7.49999987	      8.41323622	     -5.84145323	      2.81482074	      7.11093868	      0.12410929	      3.68760552	     -6.72426380	     -7.49999987	     -1.69663283	     -0.05074727	      1.67454125	      1.94411916	     -7.73675250	      4.39091866	     41.91833528	     74.19546051	      1.65157791	     -9.83937883	      8.25568750	     48.43141310	     80.58347388
      3.83333330	     -7.68238231	     -0.62156673	      2.58219600	      0.33799108	      1.01516948	     -0.03467914	      6.50431486	     -1.73382599	      3.20065031	      4.81063490	      0.08396142	      4.01540803	    -14.54391828	     -7.49999987	      8.48056230	     -5.84702873	      2.64482333	      7.03155920	      0.12272386	      3.73285122	     -6.58376492	     -7.49999987	     -1.16640812	      0.04738618	      1.98651410	      1.47905568	     -7.66883666	      3.62936648	     41.97698484	     76.57041190	      1.43526834	    -10.09252291	      9.05009945	     48.31931249	     86.16063630
      3.85000000	     -7.72274938	     -0.60514678	      2.55619779	      0.33788062	      1.01485926	     -0.03471637	      6.49634578	     -1.80956022	      2.99769533	      4.75401504	      0.08297322	      4.07663253	    -14.25164952	     -7.49999987	      8.37621714	     -5.80550232	      2.47274352	      6.82265548	      0.11907780	      3.69795133	     -6.26446749	     -7.49999987	     -0.85076948	      0.07736133	      1.93411177	      1.17676887	     -7.53222081	      3.69513663	     42.09215794	     75.14523307	      0.95573227	    -10.28090834	      9.40089537	     48.53439205	     84.33293737
      3.86666670	     -7.66718839	     -0.62627247	      2.53663375	      0.33814630	      1.01839521	     -0.03460690	      6.35209441	     -1.81082034	      2.96798768	      4.59936746	      0.08027411	      4.02007938	    -14.18516132	     -7.49999987	      8.16206242	     -5.83362537	      2.31395298	      6.60621847	      0.11530026	      3.66691384	     -6.07156967	     -7.49999987	     -0.66941610	      0.10252996	      1.91597487	      0.89971510	     -7.28845117	      3.61035134	     42.19354039	     73.69261917	      0.51764077	    -10.66328786	      9.78783172	     48.59978129	     82.60944481
      3.88333330	     -7.74843252	     -0.66005147	      2.51867502	      0.33799135	      1.01767567	     -0.03457537	      6.38111460	     -1.78596215	      3.01718588	      4.47247951	      0.07805949	      3.75030801	    -14.39877391	     -7.49999987	      8.17312309	     -5.86313064	      2.14454402	      6.49017165	      0.11327486	      3.71021095	     -5.75477180	     -7.49999987	     -0.25477984	      0.12036931	      2.26275308	      0.26139222	     -7.01537003	      2.62143970	     42.44653280	     75.37988064	      0.40872065	    -11.17282363	     10.56570812	     48.02354823	     85.93376135
      3.90000000	     -7.69543456	     -0.66602849	      2.51780752	      0.33820711	      1.01806198	     -0.03469952	      6.25746766	     -1.79950817	      3.03068673	      4.36559637	      0.07619403	      3.74832562	    -14.30026322	     -7.49999987	      8.03552982	     -5.86710516	      2.01567965	      6.35737186	      0.11095707	      3.71306549	     -5.50868727	     -7.49999987	     -0.10997039	      0.11467713	      2.18306363	      0.04162906	     -6.78329943	      2.45178133	     42.38617213	     76.29597393	     -0.26833071	    -11.40543868	      9.55646186	     47.65213777	     87.89990464
      3.91666670	     -7.62069816	     -0.71758533	      2.56364378	      0.33791620	      1.01754587	     -0.03472171	      6.10464195	     -1.75724286	      2.87012505	      4.23230637	      0.07386768	      3.70947836	    -14.12861996	     -7.49999987	      7.85866484	     -5.92409603	      1.94312762	      6.17860467	      0.10783699	      3.75866018	     -5.36789932	     -7.49999987	     -0.02221351	      0.15690395	      2.18622225	     -0.20490594	     -6.58324472	      2.38785231	     42.39027559	     75.46869194	     -0.65950982	    -11.61573175	      9.37070110	     47.17988170	     86.75758151
      3.93333330	     -7.56111870	     -0.70181042	      2.58027221	      0.33807671	      1.01784976	     -0.03474405	      5.97177388	     -1.77761474	      2.85529688	      4.09066037	      0.07139549	      3.62621920	    -14.13872098	     -7.49999987	      7.69396245	     -5.91928215	      1.84758120	      6.00394048	      0.10478853	      3.72621516	     -5.26135064	     -7.49999987	      0.08462707	      0.05601370	      2.25074727	     -0.45825959	     -6.31035060	      2.37144753	     42.21064515	     74.67304955	     -0.91071439	    -11.76379533	      9.11040221	     46.32820985	     85.70470620
      3.95000000	     -7.68070647	     -0.69845657	      2.56858913	      0.33799205	      1.01701110	     -0.03464225	      6.09567496	     -1.77731126	      2.87591983	      4.03873494	      0.07048922	      3.52054831	    -14.19070128	     -7.49999987	      7.79766915	     -5.91354789	      1.74258305	      5.96121142	      0.10404277	      3.68101646	     -5.30979264	     -7.49999987	      0.47806911	      0.01596584	      2.40930971	     -0.67313413	     -6.19059974	      2.84529738	     41.75484445	     74.26453557	     -0.94954960	    -11.95513732	      9.42311380	     45.24229037	     85.29849316
